<svg width="18" height="24" viewBox="0 0 18 24" fill="none" xmlns="http://www.w3.org/2000/svg">
<path d="M13 8.24736C13 6.98088 14.6845 6.6452 15.1314 7.83019C16.2123 10.6966 17 13.2608 17 14.6472C17 19.0654 13.4182 22.6472 9 22.6472C4.58173 22.6472 1 19.0654 1 14.6472C1 13.1578 1.90915 10.3088 3.1145 7.18604C4.67589 3.14094 5.45658 1.11838 6.42032 1.00944C6.72864 0.974589 7.06512 1.03726 7.34016 1.18081C8.2 1.62948 8.2 3.83544 8.2 8.24736C8.2 9.5728 9.27456 10.6474 10.6 10.6474C11.9254 10.6474 13 9.5728 13 8.24736Z" stroke="#F6F6F6" stroke-width="1.5"/>
<path d="M7.39993 22.6469L6.97944 21.5957C6.25048 19.7733 6.55784 17.6995 7.78392 16.1669C8.40728 15.3877 9.59257 15.3877 10.2159 16.1669C11.442 17.6995 11.7494 19.7733 11.0204 21.5957L10.5999 22.6469" stroke="#F6F6F6" stroke-width="1.5"/>
</svg>
