<svg width="32" height="32" viewBox="0 0 32 32" fill="none" xmlns="http://www.w3.org/2000/svg">
<path d="M6.83333 12.6667C10.055 12.6667 12.6667 10.055 12.6667 6.83333C12.6667 3.61167 10.055 1 6.83333 1C3.61167 1 1 3.61167 1 6.83333C1 10.055 3.61167 12.6667 6.83333 12.6667Z" stroke="#B35C32" stroke-width="2" stroke-linecap="round" stroke-linejoin="round"/>
<path d="M25.1667 12.6667C28.3884 12.6667 31 10.055 31 6.83333C31 3.61167 28.3884 1 25.1667 1C21.945 1 19.3334 3.61167 19.3334 6.83333C19.3334 10.055 21.945 12.6667 25.1667 12.6667Z" stroke="#B35C32" stroke-width="2" stroke-linecap="round" stroke-linejoin="round"/>
<path d="M6.83333 31C10.055 31 12.6667 28.3883 12.6667 25.1666C12.6667 21.945 10.055 19.3333 6.83333 19.3333C3.61167 19.3333 1 21.945 1 25.1666C1 28.3883 3.61167 31 6.83333 31Z" stroke="#B35C32" stroke-width="2" stroke-linecap="round" stroke-linejoin="round"/>
<path d="M25.1667 31C28.3884 31 31 28.3883 31 25.1666C31 21.945 28.3884 19.3333 25.1667 19.3333C21.945 19.3333 19.3334 21.945 19.3334 25.1666C19.3334 28.3883 21.945 31 25.1667 31Z" stroke="#B35C32" stroke-width="2" stroke-linecap="round" stroke-linejoin="round"/>
</svg>
