<svg width="34" height="30" viewBox="0 0 34 30" fill="none" xmlns="http://www.w3.org/2000/svg">
<path d="M16.475 5.98845L17 5.96655L17.525 5.98845C24.788 6.29153 30.7333 12.8415 30.7333 21.0729V22.5521H3.26667V21.0729C3.26667 12.8415 9.21197 6.29153 16.475 5.98845ZM33 26.0312C33 27.6192 31.8432 28.75 30.6 28.75H3.4C2.15681 28.75 1 27.6192 1 26.0312C1 25.9372 1.03458 25.8685 1.0701 25.8296C1.10428 25.7922 1.12759 25.7917 1.13333 25.7917H32.8667C32.8724 25.7917 32.8957 25.7922 32.9299 25.8296C32.9654 25.8685 33 25.9372 33 26.0312ZM6.93333 13.6354C6.93333 15.4712 8.31292 17.1146 10.2 17.1146C12.0871 17.1146 13.4667 15.4712 13.4667 13.6354C13.4667 11.7996 12.0871 10.1562 10.2 10.1562C8.31292 10.1562 6.93333 11.7996 6.93333 13.6354ZM10.3333 13.6354C10.3333 13.7279 10.2991 13.7969 10.2628 13.8366C10.2277 13.8749 10.2042 13.875 10.2 13.875C10.1958 13.875 10.1723 13.8749 10.1372 13.8366C10.1009 13.7969 10.0667 13.7279 10.0667 13.6354C10.0667 13.543 10.1009 13.4739 10.1372 13.4343C10.1723 13.3959 10.1958 13.3958 10.2 13.3958C10.2042 13.3958 10.2277 13.3959 10.2628 13.4343C10.2991 13.4739 10.3333 13.543 10.3333 13.6354Z" stroke="#B35C32" stroke-width="2"/>
</svg>
