<svg width="20" height="20" viewBox="0 0 20 20" fill="none" xmlns="http://www.w3.org/2000/svg">
<path d="M9.86154 10.4854V10.5854H9.96154H12.2538C12.6195 10.5854 12.9154 10.8814 12.9154 11.2462C12.9154 11.6116 12.6195 11.9069 12.2538 11.9069H9.20077C8.8351 11.9069 8.53923 11.6116 8.53923 11.2462V6.61462C8.53923 6.24914 8.83593 5.95308 9.20077 5.95308C9.56541 5.95308 9.86154 6.24971 9.86154 6.61462V10.4854ZM0.1 10C0.1 4.53215 4.53139 0.1 10 0.1C15.4678 0.1 19.9 4.53215 19.9 10C19.9 15.4678 15.4671 19.9 10 19.9C4.53139 19.9 0.1 15.4679 0.1 10ZM1.74231 10.0208C1.74231 14.5368 5.40323 18.1977 9.91923 18.1977C14.4345 18.1977 18.0962 14.5368 18.0962 10.0208C18.0962 5.50477 14.4345 1.84385 9.91923 1.84385C5.40323 1.84385 1.74231 5.50477 1.74231 10.0208Z" fill="#F6F6F6" stroke="#1F1F1F" stroke-width="0.2"/>
</svg>
