<?xml version="1.0" standalone="no"?>
<!DOCTYPE svg PUBLIC "-//W3C//DTD SVG 20010904//EN"
 "http://www.w3.org/TR/2001/REC-SVG-20010904/DTD/svg10.dtd">
<svg version="1.0" xmlns="http://www.w3.org/2000/svg"
 width="512.000000pt" height="512.000000pt" viewBox="0 0 512.000000 512.000000"
 preserveAspectRatio="xMidYMid meet">

<g transform="translate(0.000000,512.000000) scale(0.100000,-0.100000)"
fill="#B35C32" stroke="none">
<path d="M2397 4944 c-351 -63 -640 -355 -702 -709 -22 -129 -20 -219 11 -362
l6 -33 -751 0 -752 0 -24 -25 -25 -24 0 -271 0 -271 25 -24 c24 -25 24 -25
240 -25 l215 0 0 -1495 0 -1496 25 -24 24 -25 1871 0 1871 0 24 25 25 24 0
1496 0 1495 215 0 c216 0 216 0 240 25 l25 24 0 271 0 271 -25 24 -24 25 -752
0 -751 0 6 33 c54 252 18 469 -110 674 -189 304 -550 462 -907 397z m378 -178
c113 -36 198 -89 290 -181 91 -91 144 -175 182 -290 23 -69 26 -97 27 -210 0
-97 -4 -145 -17 -187 l-18 -58 -179 0 -180 0 0 135 c0 131 -1 137 -25 160 -24
25 -24 25 -240 25 l-215 0 0 80 0 80 240 0 240 0 0 80 0 80 -120 0 -120 0 0
80 0 80 -80 0 -80 0 0 -80 0 -80 -95 0 c-88 0 -98 -2 -120 -25 -25 -24 -25
-26 -25 -215 0 -259 -21 -240 265 -240 l215 0 0 -80 0 -80 -420 0 -419 0 -18
58 c-13 42 -17 90 -17 187 1 113 4 141 27 210 38 115 91 199 182 290 112 112
235 179 379 205 89 16 251 5 341 -24z m2025 -1246 l0 -160 -2240 0 -2240 0 0
160 0 160 2240 0 2240 0 0 -160z m-480 -1760 l0 -1440 -245 0 -245 0 45 67
c51 77 57 113 22 146 -13 12 -274 155 -580 317 l-557 295 28 23 c90 77 92 79
92 113 0 30 -16 49 -143 176 l-143 143 783 0 783 0 0 720 0 720 -1600 0 -1600
0 0 -720 0 -720 787 0 786 0 -494 -370 c-272 -204 -500 -378 -506 -387 -28
-37 -16 -72 49 -139 l61 -64 -77 0 c-68 0 -80 -3 -101 -25 -24 -23 -25 -29
-25 -160 l0 -135 -320 0 -320 0 0 1440 0 1440 1760 0 1760 0 0 -1440z m-320
560 l0 -560 -1440 0 -1440 0 0 560 0 560 1440 0 1440 0 0 -560z m-1388 -967
c32 -32 58 -60 58 -64 0 -4 -185 -145 -411 -315 l-410 -307 -62 61 c-40 40
-58 65 -52 71 15 15 809 610 815 611 2 0 30 -26 62 -57z m589 -622 c283 -151
516 -275 518 -277 2 -2 -11 -26 -29 -54 -24 -37 -37 -49 -49 -45 -15 5 -1031
544 -1040 551 -8 7 62 105 73 102 7 -2 244 -126 527 -277z m-617 3 l167 -89
-166 -3 c-91 -1 -240 -1 -332 0 l-166 3 154 116 154 116 11 -27 c9 -21 50 -48
178 -116z m535 -285 c124 -67 228 -123 230 -125 2 -2 -102 -4 -232 -4 l-237 0
0 125 c0 69 3 125 6 125 3 0 108 -54 233 -121z m-399 -49 l0 -80 -560 0 -560
0 0 80 0 80 560 0 560 0 0 -80z"/>
<path d="M4000 1360 l0 -80 80 0 80 0 0 80 0 80 -80 0 -80 0 0 -80z"/>
<path d="M1040 640 l0 -80 80 0 80 0 0 80 0 80 -80 0 -80 0 0 -80z"/>
<path d="M1280 2480 l0 -240 80 0 80 0 0 160 0 160 80 0 80 0 0 80 0 80 -160
0 -160 0 0 -240z"/>
<path d="M1760 2640 l0 -80 120 0 120 0 0 -320 0 -320 80 0 80 0 0 320 0 320
120 0 120 0 0 80 0 80 -320 0 -320 0 0 -80z"/>
<path d="M2560 2640 l0 -80 80 0 80 0 0 80 0 80 -80 0 -80 0 0 -80z"/>
<path d="M2880 2320 l0 -400 80 0 80 0 0 160 0 160 96 0 c53 0 115 5 138 12
55 16 138 99 154 154 28 94 8 169 -63 239 -68 68 -95 75 -309 75 l-176 0 0
-400z m375 215 c16 -15 25 -36 25 -55 0 -19 -9 -40 -25 -55 -22 -23 -32 -25
-120 -25 l-95 0 0 80 0 80 95 0 c88 0 98 -2 120 -25z"/>
<path d="M2560 2160 l0 -240 80 0 80 0 0 240 0 240 -80 0 -80 0 0 -240z"/>
<path d="M3680 2240 l0 -160 -80 0 -80 0 0 -80 0 -80 160 0 160 0 0 240 0 240
-80 0 -80 0 0 -160z"/>
<path d="M1280 2000 l0 -80 80 0 80 0 0 80 0 80 -80 0 -80 0 0 -80z"/>
</g>
</svg>
