<svg width="20" height="21" viewBox="0 0 20 21" fill="none" xmlns="http://www.w3.org/2000/svg">
<path d="M19.388 0H0.611976C0.27442 0 0 0.200138 0 0.446083C0.0116549 0.547645 0.0558486 0.642718 0.125984 0.717093C0.19612 0.791468 0.288444 0.841155 0.389149 0.858744H19.6125C19.7129 0.840896 19.8049 0.791088 19.8747 0.716728C19.9446 0.642368 19.9885 0.547437 20 0.446083C19.9988 0.200138 19.7252 0 19.388 0Z" fill="#F6F6F6"/>
<path d="M18.6485 19.3125H18.4674V13.2051C18.5099 12.7304 18.5117 12.2528 18.4727 11.7778C18.472 9.80713 17.769 7.90127 16.4899 6.40217C15.2108 4.90308 13.4394 3.90888 11.4934 3.598V2.66291H17.9689C18.1226 2.66735 18.2719 2.61056 18.3838 2.50501C18.4957 2.39946 18.5611 2.2538 18.5656 2.10004L18.9564 1.2937H1.04156L1.40842 2.10004C1.41306 2.25391 1.47859 2.39964 1.59064 2.50519C1.70269 2.61074 1.85208 2.66747 2.00595 2.66291H8.73231V3.62028C8.69434 3.62688 8.65638 3.63225 8.61883 3.63927C6.79275 3.99158 5.13819 4.94774 3.92119 6.35402C2.70419 7.76031 1.99547 9.535 1.90897 11.3927C1.87207 11.4782 1.85284 11.5703 1.85244 11.6635V19.3125H1.35106C1.17594 19.3125 1.008 19.3821 0.88418 19.5059C0.760358 19.6297 0.690796 19.7977 0.690796 19.9728C0.690796 20.1479 0.760358 20.3158 0.88418 20.4396C1.008 20.5635 1.17594 20.633 1.35106 20.633H18.6498C18.8249 20.633 18.9928 20.5635 19.1166 20.4396C19.2405 20.3158 19.31 20.1479 19.31 19.9728C19.31 19.7977 19.2405 19.6297 19.1166 19.5059C18.9928 19.3821 18.8249 19.3125 18.6498 19.3125H18.6485ZM10.3879 17.2216V16.1581H10.0858V17.2216C8.62443 17.1746 7.23905 16.5592 6.22456 15.5062C5.21007 14.4532 4.64657 13.0459 4.65399 11.5838C4.65399 11.5661 4.65605 11.5491 4.65605 11.5318H5.63859V11.2306H4.67132C4.75067 9.83255 5.35038 8.51487 6.35243 7.5368C7.35449 6.55872 8.68631 5.9911 10.0858 5.94563V7.12584H10.3879V5.94232C11.7883 5.98677 13.1214 6.55396 14.1245 7.53219C15.1276 8.51042 15.7282 9.82879 15.8078 11.2277H14.4303V11.5289H15.8197V11.4811C15.8197 11.5145 15.8251 11.5467 15.8251 11.5809C15.833 13.0443 15.269 14.4529 14.2533 15.5065C13.2376 16.56 11.8506 17.1751 10.3879 17.2207V17.2216Z" fill="#F6F6F6"/>
<path d="M10.4527 9.2539L10.4374 9.25183V8.08029C10.4374 8.00931 10.3479 7.95236 10.2373 7.95236C10.1267 7.95236 10.0372 8.00931 10.0372 8.08029V9.25183L10.0215 9.2539C9.4546 9.30926 8.93075 9.58058 8.55845 10.0116C8.18616 10.4427 7.99396 11.0005 8.02167 11.5694C8.04939 12.1383 8.2949 12.6747 8.70733 13.0675C9.11977 13.4604 9.66753 13.6795 10.2371 13.6795C10.8067 13.6795 11.3544 13.4604 11.7669 13.0675C12.1793 12.6747 12.4248 12.1383 12.4525 11.5694C12.4802 11.0005 12.288 10.4427 11.9157 10.0116C11.5434 9.58058 11.0196 9.30926 10.4527 9.2539ZM10.2365 13.3805C9.76344 13.3772 9.30848 13.1984 8.95967 12.8789C8.61086 12.5593 8.39302 12.1217 8.34833 11.6508C8.30365 11.1798 8.4353 10.7091 8.71779 10.3296C9.00027 9.9502 9.4135 9.68907 9.87746 9.59681V10.5228C9.68224 10.5848 9.51147 10.7067 9.38928 10.8711C9.26709 11.0355 9.19968 11.2341 9.19657 11.4389C9.21325 11.7036 9.33016 11.952 9.5235 12.1336C9.71684 12.3151 9.97209 12.4162 10.2373 12.4162C10.5025 12.4162 10.7578 12.3151 10.9511 12.1336C11.1445 11.952 11.2614 11.7036 11.278 11.4389C11.2749 11.2341 11.2074 11.0355 11.0853 10.8711C10.9631 10.7067 10.7923 10.5849 10.5971 10.5228V9.59558C11.0612 9.68787 11.4746 9.94913 11.757 10.3287C12.0395 10.7084 12.171 11.1793 12.1261 11.6504C12.0812 12.1214 11.8631 12.559 11.514 12.8784C11.1649 13.1978 10.7096 13.3763 10.2365 13.3793V13.3805Z" fill="#F6F6F6"/>
</svg>
